# xmcd
#
# Track frame offsets: 
#        150
#        12866
#        25575
#        38380
#        45386
#        56058
#        66877
#        75924
#        86228
#        94391
#        107786
#        118158
#
# Disc length: 1739 seconds
#
# Revision: 0
# Processed by: cddbd v1.5.2PL0 Copyright (c) Steve Scherf et al.
# Submitted via: ExactAudioCopy v1.0b1
#
DISCID=8d06c90c
DTITLE=Porter Wagner and The Blackwood Brothers - More Grand Old Gospel
DYEAR=1967
DGENRE=Gospel
TTITLE0=Where No One Stands Alone
TTITLE1=Rank Strangers To Me
TTITLE2=You're  Not Home Yet
TTITLE3=Lord Build Me A Cabin In Glory
TTITLE4=There'd Be No Need For Heaven
TTITLE5=Where The Soul Of Man Never Dies
TTITLE6=Beautiful Wings
TTITLE7=God Walks These Hills With Me
TTITLE8=Tell Your Children (The Day Of Wrath)
TTITLE9=God's Wonderful Way
TTITLE10=I'll Fly Away
TTITLE11=Thirty Pieces Of Silver
EXTD=
EXTT0=
EXTT1=
EXTT2=
EXTT3=
EXTT4=
EXTT5=
EXTT6=
EXTT7=
EXTT8=
EXTT9=
EXTT10=
EXTT11=
PLAYORDER=
